<mxfile host="Electron" agent="Mozilla/5.0 (X11; Linux x86_64) AppleWebKit/537.36 (KHTML, like Gecko) draw.io/26.1.1 Chrome/132.0.6834.210 Electron/34.3.3 Safari/537.36" version="26.1.1">
  <diagram name="Page-1" id="1yxYIGb8WWczVaJ3-jgp">
    <mxGraphModel dx="119" dy="764" grid="1" gridSize="10" guides="1" tooltips="1" connect="1" arrows="1" fold="1" page="1" pageScale="1" pageWidth="850" pageHeight="1100" math="0" shadow="0">
      <root>
        <mxCell id="0" />
        <mxCell id="1" parent="0" />
        <mxCell id="Zk4uYZ6dvUEHPbDmjE2m-7" value="" style="edgeStyle=orthogonalEdgeStyle;rounded=0;orthogonalLoop=1;jettySize=auto;html=1;" edge="1" parent="1" source="Zk4uYZ6dvUEHPbDmjE2m-1" target="Zk4uYZ6dvUEHPbDmjE2m-6">
          <mxGeometry relative="1" as="geometry" />
        </mxCell>
        <mxCell id="Zk4uYZ6dvUEHPbDmjE2m-1" value="START" style="ellipse;whiteSpace=wrap;html=1;fillColor=#99FF99;" vertex="1" parent="1">
          <mxGeometry x="1215" width="120" height="40" as="geometry" />
        </mxCell>
        <mxCell id="Zk4uYZ6dvUEHPbDmjE2m-9" value="" style="edgeStyle=orthogonalEdgeStyle;rounded=0;orthogonalLoop=1;jettySize=auto;html=1;" edge="1" parent="1" source="Zk4uYZ6dvUEHPbDmjE2m-6" target="Zk4uYZ6dvUEHPbDmjE2m-8">
          <mxGeometry relative="1" as="geometry" />
        </mxCell>
        <mxCell id="Zk4uYZ6dvUEHPbDmjE2m-6" value="Leer archivo Excel con los transportistas" style="rounded=1;whiteSpace=wrap;html=1;fillColor=default;" vertex="1" parent="1">
          <mxGeometry x="1215" y="70" width="120" height="60" as="geometry" />
        </mxCell>
        <mxCell id="Zk4uYZ6dvUEHPbDmjE2m-11" value="" style="edgeStyle=orthogonalEdgeStyle;rounded=0;orthogonalLoop=1;jettySize=auto;html=1;" edge="1" parent="1" source="Zk4uYZ6dvUEHPbDmjE2m-8">
          <mxGeometry relative="1" as="geometry">
            <mxPoint x="1275" y="250" as="targetPoint" />
          </mxGeometry>
        </mxCell>
        <mxCell id="Zk4uYZ6dvUEHPbDmjE2m-8" value="Extraer transportistas y provincias" style="whiteSpace=wrap;html=1;rounded=1;" vertex="1" parent="1">
          <mxGeometry x="1215" y="160" width="120" height="60" as="geometry" />
        </mxCell>
        <mxCell id="Zk4uYZ6dvUEHPbDmjE2m-17" value="" style="edgeStyle=orthogonalEdgeStyle;rounded=0;orthogonalLoop=1;jettySize=auto;html=1;" edge="1" parent="1" source="Zk4uYZ6dvUEHPbDmjE2m-15" target="Zk4uYZ6dvUEHPbDmjE2m-16">
          <mxGeometry relative="1" as="geometry" />
        </mxCell>
        <mxCell id="Zk4uYZ6dvUEHPbDmjE2m-19" value="" style="edgeStyle=orthogonalEdgeStyle;rounded=0;orthogonalLoop=1;jettySize=auto;html=1;" edge="1" parent="1" source="Zk4uYZ6dvUEHPbDmjE2m-15" target="Zk4uYZ6dvUEHPbDmjE2m-18">
          <mxGeometry relative="1" as="geometry" />
        </mxCell>
        <mxCell id="Zk4uYZ6dvUEHPbDmjE2m-15" value="Es el Ãºltimo transportista ?" style="rhombus;whiteSpace=wrap;html=1;" vertex="1" parent="1">
          <mxGeometry x="1218" y="506" width="115" height="110" as="geometry" />
        </mxCell>
        <mxCell id="Zk4uYZ6dvUEHPbDmjE2m-16" value="" style="rounded=1;whiteSpace=wrap;html=1;" vertex="1" parent="1">
          <mxGeometry x="1215.5" y="646" width="120" height="60" as="geometry" />
        </mxCell>
        <mxCell id="Zk4uYZ6dvUEHPbDmjE2m-18" value="" style="rounded=1;whiteSpace=wrap;html=1;" vertex="1" parent="1">
          <mxGeometry x="1370" y="531" width="120" height="60" as="geometry" />
        </mxCell>
        <mxCell id="Zk4uYZ6dvUEHPbDmjE2m-20" value="SI" style="text;html=1;align=center;verticalAlign=middle;whiteSpace=wrap;rounded=0;" vertex="1" parent="1">
          <mxGeometry x="1260" y="616" width="60" height="30" as="geometry" />
        </mxCell>
        <mxCell id="Zk4uYZ6dvUEHPbDmjE2m-21" value="NO" style="text;html=1;align=center;verticalAlign=middle;whiteSpace=wrap;rounded=0;" vertex="1" parent="1">
          <mxGeometry x="1320" y="531" width="60" height="30" as="geometry" />
        </mxCell>
      </root>
    </mxGraphModel>
  </diagram>
</mxfile>
